<svg data-icon="bring-data" width="64" height="64" viewBox="0 0 20 20"><path d="M18 18a1 1 0 0 1 0 2H2a1 1 0 0 1 0-2h16zM9.995 3.005c.55 0 1 .45 1 .999v9.584l1.29-1.288a1.002 1.002 0 0 1 1.42 1.419l-3 2.996a1.015 1.015 0 0 1-1.42 0l-3-2.997a1.002 1.002 0 0 1 1.42-1.419l1.29 1.29V4.013c0-.55.45-1.009 1-1.009zM16 0a1 1 0 1 1 0 2 1 1 0 0 1 0-2zm-3 0a1 1 0 1 1 0 2 1 1 0 0 1 0-2zm-3 0a1 1 0 1 1 0 2 1 1 0 0 1 0-2zM7 0a1 1 0 1 1 0 2 1 1 0 0 1 0-2zM4 0a1 1 0 1 1 0 2 1 1 0 0 1 0-2z" fill-rule="evenodd"/></svg>