<svg data-icon="search-around" width="64" height="64" viewBox="0 0 20 20"><path d="M9.9 6.9a3 3 0 1 0 0 6 3 3 0 1 0 0-6zM3 14c-1.7 0-3 1.3-3 3s1.3 3 3 3 3-1.3 3-3-1.3-3-3-3zm0 5c-1.1 0-2-.9-2-2s.9-2 2-2 2 .9 2 2-.9 2-2 2zM3 0C1.3 0 0 1.3 0 3s1.3 3 3 3 3-1.3 3-3-1.3-3-3-3zm0 5c-1.1 0-2-.9-2-2s.9-2 2-2 2 .9 2 2-.9 2-2 2zm14 9c-1.7 0-3 1.3-3 3s1.3 3 3 3 3-1.3 3-3-1.3-3-3-3zm0 5c-1.1 0-2-.9-2-2s.9-2 2-2 2 .9 2 2-.9 2-2 2zm0-19c-1.7 0-3 1.3-3 3s1.3 3 3 3 3-1.3 3-3-1.3-3-3-3zm0 5c-1.1 0-2-.9-2-2s.9-2 2-2 2 .9 2 2-.9 2-2 2zm-7 5L5 5" fill-rule="evenodd"/><path d="m5.379 4.671 5.02 5.02-.707.708-5.02-5.02zM10 10l5-5" fill-rule="evenodd"/><path d="m14.621 4.671.707.708-5.02 5.02-.707-.707z" fill-rule="evenodd"/><path d="m10 10 5 5m-4.621-5.329 5.02 5.02-.707.708-5.02-5.02z" fill-rule="evenodd"/><path d="m10 10-5 5m4.621-5.329.707.708-5.02 5.02-.707-.707z" fill-rule="evenodd"/></svg>